%TF.GenerationSoftware,KiCad,Pcbnew,(6.0.10-0)*%
%TF.CreationDate,2023-02-17T09:22:20-08:00*%
%TF.ProjectId,exercise2_pcb,65786572-6369-4736-9532-5f7063622e6b,rev?*%
%TF.SameCoordinates,Original*%
%TF.FileFunction,Copper,L1,Top*%
%TF.FilePolarity,Positive*%
%FSLAX46Y46*%
G04 Gerber Fmt 4.6, Leading zero omitted, Abs format (unit mm)*
G04 Created by KiCad (PCBNEW (6.0.10-0)) date 2023-02-17 09:22:20*
%MOMM*%
%LPD*%
G01*
G04 APERTURE LIST*
G04 Aperture macros list*
%AMRoundRect*
0 Rectangle with rounded corners*
0 $1 Rounding radius*
0 $2 $3 $4 $5 $6 $7 $8 $9 X,Y pos of 4 corners*
0 Add a 4 corners polygon primitive as box body*
4,1,4,$2,$3,$4,$5,$6,$7,$8,$9,$2,$3,0*
0 Add four circle primitives for the rounded corners*
1,1,$1+$1,$2,$3*
1,1,$1+$1,$4,$5*
1,1,$1+$1,$6,$7*
1,1,$1+$1,$8,$9*
0 Add four rect primitives between the rounded corners*
20,1,$1+$1,$2,$3,$4,$5,0*
20,1,$1+$1,$4,$5,$6,$7,0*
20,1,$1+$1,$6,$7,$8,$9,0*
20,1,$1+$1,$8,$9,$2,$3,0*%
G04 Aperture macros list end*
%TA.AperFunction,ComponentPad*%
%ADD10R,3.000000X3.000000*%
%TD*%
%TA.AperFunction,ComponentPad*%
%ADD11C,3.000000*%
%TD*%
%TA.AperFunction,SMDPad,CuDef*%
%ADD12RoundRect,0.250000X-0.337500X-0.475000X0.337500X-0.475000X0.337500X0.475000X-0.337500X0.475000X0*%
%TD*%
%TA.AperFunction,SMDPad,CuDef*%
%ADD13RoundRect,0.250001X-0.462499X-0.624999X0.462499X-0.624999X0.462499X0.624999X-0.462499X0.624999X0*%
%TD*%
%TA.AperFunction,SMDPad,CuDef*%
%ADD14RoundRect,0.250000X-0.350000X-0.450000X0.350000X-0.450000X0.350000X0.450000X-0.350000X0.450000X0*%
%TD*%
%TA.AperFunction,SMDPad,CuDef*%
%ADD15RoundRect,0.150000X-0.825000X-0.150000X0.825000X-0.150000X0.825000X0.150000X-0.825000X0.150000X0*%
%TD*%
%TA.AperFunction,SMDPad,CuDef*%
%ADD16R,2.290000X3.000000*%
%TD*%
%TA.AperFunction,SMDPad,CuDef*%
%ADD17RoundRect,0.250000X-0.537500X-0.425000X0.537500X-0.425000X0.537500X0.425000X-0.537500X0.425000X0*%
%TD*%
%TA.AperFunction,ViaPad*%
%ADD18C,0.800000*%
%TD*%
%TA.AperFunction,Conductor*%
%ADD19C,0.250000*%
%TD*%
G04 APERTURE END LIST*
D10*
%TO.P,J1,1,Pin_1*%
%TO.N,+9V*%
X139700000Y-62290000D03*
D11*
%TO.P,J1,2,Pin_2*%
%TO.N,GND*%
X144780000Y-62290000D03*
%TD*%
D12*
%TO.P,C2,1*%
%TO.N,Net-(C2-Pad1)*%
X118342500Y-104140000D03*
%TO.P,C2,2*%
%TO.N,GND*%
X120417500Y-104140000D03*
%TD*%
D13*
%TO.P,D1,1,K*%
%TO.N,Net-(R3-Pad1)*%
X156932500Y-80200000D03*
%TO.P,D1,2,A*%
%TO.N,+9V*%
X159907500Y-80200000D03*
%TD*%
%TO.P,D2,1,K*%
%TO.N,GND*%
X153965000Y-111760000D03*
%TO.P,D2,2,A*%
%TO.N,Net-(D2-Pad2)*%
X156940000Y-111760000D03*
%TD*%
D14*
%TO.P,R4,1*%
%TO.N,/pin_3*%
X157488808Y-100580000D03*
%TO.P,R4,2*%
%TO.N,Net-(D2-Pad2)*%
X159488808Y-100580000D03*
%TD*%
%TO.P,R3,1*%
%TO.N,Net-(R3-Pad1)*%
X161020000Y-89080000D03*
%TO.P,R3,2*%
%TO.N,/pin_3*%
X163020000Y-89080000D03*
%TD*%
D15*
%TO.P,U1,1,GND*%
%TO.N,GND*%
X114045000Y-89072500D03*
%TO.P,U1,2,TR*%
%TO.N,/pin_2*%
X114045000Y-90342500D03*
%TO.P,U1,3,Q*%
%TO.N,/pin_3*%
X114045000Y-91612500D03*
%TO.P,U1,4,R*%
%TO.N,+9V*%
X114045000Y-92882500D03*
%TO.P,U1,5,CV*%
%TO.N,Net-(C2-Pad1)*%
X118995000Y-92882500D03*
%TO.P,U1,6,THR*%
%TO.N,/pin_2*%
X118995000Y-91612500D03*
%TO.P,U1,7,DIS*%
%TO.N,/pin_7*%
X118995000Y-90342500D03*
%TO.P,U1,8,VCC*%
%TO.N,+9V*%
X118995000Y-89072500D03*
D16*
%TO.P,U1,9*%
%TO.N,N/C*%
X116520000Y-90977500D03*
%TD*%
D14*
%TO.P,R1,1*%
%TO.N,+9V*%
X118380000Y-78740000D03*
%TO.P,R1,2*%
%TO.N,/pin_7*%
X120380000Y-78740000D03*
%TD*%
D17*
%TO.P,C1,1*%
%TO.N,/pin_2*%
X87462500Y-106680000D03*
%TO.P,C1,2*%
%TO.N,GND*%
X90337500Y-106680000D03*
%TD*%
D14*
%TO.P,R2,1*%
%TO.N,/pin_7*%
X92065872Y-78740000D03*
%TO.P,R2,2*%
%TO.N,/pin_2*%
X94065872Y-78740000D03*
%TD*%
D18*
%TO.N,/pin_2*%
X121920000Y-101600000D03*
X106680000Y-88900000D03*
%TO.N,GND*%
X114300000Y-83820000D03*
X129540000Y-96520000D03*
%TO.N,+9V*%
X121920000Y-88900000D03*
X116840000Y-99060000D03*
%TO.N,/pin_7*%
X124460000Y-88900000D03*
X124460000Y-81280000D03*
%TO.N,/pin_3*%
X124460000Y-96520000D03*
X109220000Y-101600000D03*
%TD*%
D19*
%TO.N,/pin_2*%
X124460000Y-93980000D02*
X124460000Y-91440000D01*
X102697500Y-90342500D02*
X93980000Y-99060000D01*
X113202500Y-90342500D02*
X114045000Y-90342500D01*
X119207500Y-91612500D02*
X119380000Y-91440000D01*
X114045000Y-90342500D02*
X102697500Y-90342500D01*
X121920000Y-96520000D02*
X124460000Y-93980000D01*
X109220000Y-81280000D02*
X106680000Y-83820000D01*
X121920000Y-101600000D02*
X121920000Y-96520000D01*
X106680000Y-83820000D02*
X106680000Y-88900000D01*
X94065872Y-100076628D02*
X94065872Y-78740000D01*
X109220000Y-86360000D02*
X113202500Y-90342500D01*
X87462500Y-106680000D02*
X94065872Y-100076628D01*
X124460000Y-91440000D02*
X119380000Y-91440000D01*
X109220000Y-81280000D02*
X109220000Y-86360000D01*
%TO.N,GND*%
X120417500Y-104140000D02*
X128037500Y-96520000D01*
X128037500Y-96520000D02*
X129540000Y-96520000D01*
X144780000Y-53340000D02*
X144780000Y-62290000D01*
X68580000Y-109220000D02*
X68580000Y-76200000D01*
X91440000Y-53340000D02*
X144780000Y-53340000D01*
X90337500Y-110657500D02*
X99060000Y-119380000D01*
X120417500Y-104140000D02*
X146345000Y-104140000D01*
X96520000Y-121920000D02*
X81280000Y-121920000D01*
X114300000Y-83820000D02*
X114300000Y-88900000D01*
X90337500Y-106680000D02*
X90337500Y-110657500D01*
X105177500Y-119380000D02*
X120417500Y-104140000D01*
X81280000Y-121920000D02*
X68580000Y-109220000D01*
X99060000Y-119380000D02*
X96520000Y-121920000D01*
X99060000Y-119380000D02*
X105177500Y-119380000D01*
X68580000Y-76200000D02*
X91440000Y-53340000D01*
X146345000Y-104140000D02*
X153965000Y-111760000D01*
%TO.N,Net-(C2-Pad1)*%
X118342500Y-104140000D02*
X118995000Y-103487500D01*
X118995000Y-103487500D02*
X118995000Y-92882500D01*
%TO.N,Net-(R3-Pad1)*%
X156932500Y-84992500D02*
X161020000Y-89080000D01*
X156932500Y-80200000D02*
X156932500Y-84992500D01*
%TO.N,+9V*%
X139700000Y-62290000D02*
X139700000Y-68367500D01*
X114045000Y-92882500D02*
X114045000Y-96265000D01*
X121920000Y-88900000D02*
X119167500Y-88900000D01*
X141997500Y-62290000D02*
X139700000Y-62290000D01*
X139700000Y-68367500D02*
X118995000Y-89072500D01*
X118995000Y-79355000D02*
X118995000Y-89072500D01*
X114045000Y-96265000D02*
X116840000Y-99060000D01*
X159907500Y-80200000D02*
X141997500Y-62290000D01*
X119167500Y-88900000D02*
X118995000Y-89072500D01*
X118380000Y-78740000D02*
X118995000Y-79355000D01*
%TO.N,Net-(D2-Pad2)*%
X159488808Y-109211192D02*
X159488808Y-100580000D01*
X156940000Y-111760000D02*
X159488808Y-109211192D01*
%TO.N,/pin_7*%
X92065872Y-78114128D02*
X101600000Y-68580000D01*
X122372500Y-90987500D02*
X119640000Y-90987500D01*
X124460000Y-88900000D02*
X122372500Y-90987500D01*
X92065872Y-78740000D02*
X92065872Y-78114128D01*
X119640000Y-90987500D02*
X118995000Y-90342500D01*
X101600000Y-68580000D02*
X110220000Y-68580000D01*
X110220000Y-68580000D02*
X120380000Y-78740000D01*
X120380000Y-78740000D02*
X121920000Y-78740000D01*
X121920000Y-78740000D02*
X124460000Y-81280000D01*
%TO.N,/pin_3*%
X157488808Y-94611192D02*
X126368808Y-94611192D01*
X109220000Y-101600000D02*
X109220000Y-93980000D01*
X157800000Y-94300000D02*
X163020000Y-89080000D01*
X126368808Y-94611192D02*
X124460000Y-96520000D01*
X111587500Y-91612500D02*
X114045000Y-91612500D01*
X109220000Y-93980000D02*
X111587500Y-91612500D01*
X157488808Y-100580000D02*
X157488808Y-94611192D01*
X157488808Y-94611192D02*
X157800000Y-94300000D01*
%TD*%
M02*
