%TF.GenerationSoftware,KiCad,Pcbnew,(6.0.10-0)*%
%TF.CreationDate,2023-02-17T09:12:44-08:00*%
%TF.ProjectId,exercise1_pcb,65786572-6369-4736-9531-5f7063622e6b,rev?*%
%TF.SameCoordinates,Original*%
%TF.FileFunction,Legend,Top*%
%TF.FilePolarity,Positive*%
%FSLAX46Y46*%
G04 Gerber Fmt 4.6, Leading zero omitted, Abs format (unit mm)*
G04 Created by KiCad (PCBNEW (6.0.10-0)) date 2023-02-17 09:12:44*
%MOMM*%
%LPD*%
G01*
G04 APERTURE LIST*
%ADD10C,0.150000*%
%ADD11C,0.120000*%
G04 APERTURE END LIST*
D10*
X159766666Y-93627380D02*
X159766666Y-92627380D01*
X160338095Y-93627380D02*
X159909523Y-93055952D01*
X160338095Y-92627380D02*
X159766666Y-93198809D01*
X161195238Y-93627380D02*
X161195238Y-93103571D01*
X161147619Y-93008333D01*
X161052380Y-92960714D01*
X160861904Y-92960714D01*
X160766666Y-93008333D01*
X161195238Y-93579761D02*
X161100000Y-93627380D01*
X160861904Y-93627380D01*
X160766666Y-93579761D01*
X160719047Y-93484523D01*
X160719047Y-93389285D01*
X160766666Y-93294047D01*
X160861904Y-93246428D01*
X161100000Y-93246428D01*
X161195238Y-93198809D01*
X161576190Y-92960714D02*
X161814285Y-93627380D01*
X162052380Y-92960714D02*
X161814285Y-93627380D01*
X161719047Y-93865476D01*
X161671428Y-93913095D01*
X161576190Y-93960714D01*
X162576190Y-93627380D02*
X162480952Y-93579761D01*
X162433333Y-93484523D01*
X162433333Y-92627380D01*
X163338095Y-93579761D02*
X163242857Y-93627380D01*
X163052380Y-93627380D01*
X162957142Y-93579761D01*
X162909523Y-93484523D01*
X162909523Y-93103571D01*
X162957142Y-93008333D01*
X163052380Y-92960714D01*
X163242857Y-92960714D01*
X163338095Y-93008333D01*
X163385714Y-93103571D01*
X163385714Y-93198809D01*
X162909523Y-93294047D01*
X164195238Y-93579761D02*
X164100000Y-93627380D01*
X163909523Y-93627380D01*
X163814285Y-93579761D01*
X163766666Y-93484523D01*
X163766666Y-93103571D01*
X163814285Y-93008333D01*
X163909523Y-92960714D01*
X164100000Y-92960714D01*
X164195238Y-93008333D01*
X164242857Y-93103571D01*
X164242857Y-93198809D01*
X163766666Y-93294047D01*
X165433333Y-93627380D02*
X165433333Y-92627380D01*
X165433333Y-93103571D02*
X166004761Y-93103571D01*
X166004761Y-93627380D02*
X166004761Y-92627380D01*
X166909523Y-92960714D02*
X166909523Y-93627380D01*
X166480952Y-92960714D02*
X166480952Y-93484523D01*
X166528571Y-93579761D01*
X166623809Y-93627380D01*
X166766666Y-93627380D01*
X166861904Y-93579761D01*
X166909523Y-93532142D01*
X167814285Y-93627380D02*
X167814285Y-92627380D01*
X167814285Y-93579761D02*
X167719047Y-93627380D01*
X167528571Y-93627380D01*
X167433333Y-93579761D01*
X167385714Y-93532142D01*
X167338095Y-93436904D01*
X167338095Y-93151190D01*
X167385714Y-93055952D01*
X167433333Y-93008333D01*
X167528571Y-92960714D01*
X167719047Y-92960714D01*
X167814285Y-93008333D01*
X168242857Y-93579761D02*
X168338095Y-93627380D01*
X168528571Y-93627380D01*
X168623809Y-93579761D01*
X168671428Y-93484523D01*
X168671428Y-93436904D01*
X168623809Y-93341666D01*
X168528571Y-93294047D01*
X168385714Y-93294047D01*
X168290476Y-93246428D01*
X168242857Y-93151190D01*
X168242857Y-93103571D01*
X168290476Y-93008333D01*
X168385714Y-92960714D01*
X168528571Y-92960714D01*
X168623809Y-93008333D01*
X169242857Y-93627380D02*
X169147619Y-93579761D01*
X169100000Y-93532142D01*
X169052380Y-93436904D01*
X169052380Y-93151190D01*
X169100000Y-93055952D01*
X169147619Y-93008333D01*
X169242857Y-92960714D01*
X169385714Y-92960714D01*
X169480952Y-93008333D01*
X169528571Y-93055952D01*
X169576190Y-93151190D01*
X169576190Y-93436904D01*
X169528571Y-93532142D01*
X169480952Y-93579761D01*
X169385714Y-93627380D01*
X169242857Y-93627380D01*
X170004761Y-92960714D02*
X170004761Y-93627380D01*
X170004761Y-93055952D02*
X170052380Y-93008333D01*
X170147619Y-92960714D01*
X170290476Y-92960714D01*
X170385714Y-93008333D01*
X170433333Y-93103571D01*
X170433333Y-93627380D01*
X158838095Y-95237380D02*
X158361904Y-95237380D01*
X158361904Y-94237380D01*
X159171428Y-94713571D02*
X159504761Y-94713571D01*
X159647619Y-95237380D02*
X159171428Y-95237380D01*
X159171428Y-94237380D01*
X159647619Y-94237380D01*
X160076190Y-95237380D02*
X160076190Y-94237380D01*
X160314285Y-94237380D01*
X160457142Y-94285000D01*
X160552380Y-94380238D01*
X160600000Y-94475476D01*
X160647619Y-94665952D01*
X160647619Y-94808809D01*
X160600000Y-94999285D01*
X160552380Y-95094523D01*
X160457142Y-95189761D01*
X160314285Y-95237380D01*
X160076190Y-95237380D01*
X161790476Y-95189761D02*
X161933333Y-95237380D01*
X162171428Y-95237380D01*
X162266666Y-95189761D01*
X162314285Y-95142142D01*
X162361904Y-95046904D01*
X162361904Y-94951666D01*
X162314285Y-94856428D01*
X162266666Y-94808809D01*
X162171428Y-94761190D01*
X161980952Y-94713571D01*
X161885714Y-94665952D01*
X161838095Y-94618333D01*
X161790476Y-94523095D01*
X161790476Y-94427857D01*
X161838095Y-94332619D01*
X161885714Y-94285000D01*
X161980952Y-94237380D01*
X162219047Y-94237380D01*
X162361904Y-94285000D01*
X162695238Y-94570714D02*
X162885714Y-95237380D01*
X163076190Y-94761190D01*
X163266666Y-95237380D01*
X163457142Y-94570714D01*
X163838095Y-95237380D02*
X163838095Y-94570714D01*
X163838095Y-94237380D02*
X163790476Y-94285000D01*
X163838095Y-94332619D01*
X163885714Y-94285000D01*
X163838095Y-94237380D01*
X163838095Y-94332619D01*
X164171428Y-94570714D02*
X164552380Y-94570714D01*
X164314285Y-94237380D02*
X164314285Y-95094523D01*
X164361904Y-95189761D01*
X164457142Y-95237380D01*
X164552380Y-95237380D01*
X165314285Y-95189761D02*
X165219047Y-95237380D01*
X165028571Y-95237380D01*
X164933333Y-95189761D01*
X164885714Y-95142142D01*
X164838095Y-95046904D01*
X164838095Y-94761190D01*
X164885714Y-94665952D01*
X164933333Y-94618333D01*
X165028571Y-94570714D01*
X165219047Y-94570714D01*
X165314285Y-94618333D01*
X165742857Y-95237380D02*
X165742857Y-94237380D01*
X166171428Y-95237380D02*
X166171428Y-94713571D01*
X166123809Y-94618333D01*
X166028571Y-94570714D01*
X165885714Y-94570714D01*
X165790476Y-94618333D01*
X165742857Y-94665952D01*
X167980952Y-95142142D02*
X167933333Y-95189761D01*
X167790476Y-95237380D01*
X167695238Y-95237380D01*
X167552380Y-95189761D01*
X167457142Y-95094523D01*
X167409523Y-94999285D01*
X167361904Y-94808809D01*
X167361904Y-94665952D01*
X167409523Y-94475476D01*
X167457142Y-94380238D01*
X167552380Y-94285000D01*
X167695238Y-94237380D01*
X167790476Y-94237380D01*
X167933333Y-94285000D01*
X167980952Y-94332619D01*
X168409523Y-95237380D02*
X168409523Y-94570714D01*
X168409523Y-94237380D02*
X168361904Y-94285000D01*
X168409523Y-94332619D01*
X168457142Y-94285000D01*
X168409523Y-94237380D01*
X168409523Y-94332619D01*
X168885714Y-95237380D02*
X168885714Y-94570714D01*
X168885714Y-94761190D02*
X168933333Y-94665952D01*
X168980952Y-94618333D01*
X169076190Y-94570714D01*
X169171428Y-94570714D01*
X169933333Y-95189761D02*
X169838095Y-95237380D01*
X169647619Y-95237380D01*
X169552380Y-95189761D01*
X169504761Y-95142142D01*
X169457142Y-95046904D01*
X169457142Y-94761190D01*
X169504761Y-94665952D01*
X169552380Y-94618333D01*
X169647619Y-94570714D01*
X169838095Y-94570714D01*
X169933333Y-94618333D01*
X170790476Y-94570714D02*
X170790476Y-95237380D01*
X170361904Y-94570714D02*
X170361904Y-95094523D01*
X170409523Y-95189761D01*
X170504761Y-95237380D01*
X170647619Y-95237380D01*
X170742857Y-95189761D01*
X170790476Y-95142142D01*
X171266666Y-95237380D02*
X171266666Y-94570714D01*
X171266666Y-94237380D02*
X171219047Y-94285000D01*
X171266666Y-94332619D01*
X171314285Y-94285000D01*
X171266666Y-94237380D01*
X171266666Y-94332619D01*
X171600000Y-94570714D02*
X171980952Y-94570714D01*
X171742857Y-94237380D02*
X171742857Y-95094523D01*
X171790476Y-95189761D01*
X171885714Y-95237380D01*
X171980952Y-95237380D01*
%TO.C,R2*%
X192032380Y-53506666D02*
X191556190Y-53840000D01*
X192032380Y-54078095D02*
X191032380Y-54078095D01*
X191032380Y-53697142D01*
X191080000Y-53601904D01*
X191127619Y-53554285D01*
X191222857Y-53506666D01*
X191365714Y-53506666D01*
X191460952Y-53554285D01*
X191508571Y-53601904D01*
X191556190Y-53697142D01*
X191556190Y-54078095D01*
X191127619Y-53125714D02*
X191080000Y-53078095D01*
X191032380Y-52982857D01*
X191032380Y-52744761D01*
X191080000Y-52649523D01*
X191127619Y-52601904D01*
X191222857Y-52554285D01*
X191318095Y-52554285D01*
X191460952Y-52601904D01*
X192032380Y-53173333D01*
X192032380Y-52554285D01*
%TO.C,SW1*%
X146496666Y-41074761D02*
X146639523Y-41122380D01*
X146877619Y-41122380D01*
X146972857Y-41074761D01*
X147020476Y-41027142D01*
X147068095Y-40931904D01*
X147068095Y-40836666D01*
X147020476Y-40741428D01*
X146972857Y-40693809D01*
X146877619Y-40646190D01*
X146687142Y-40598571D01*
X146591904Y-40550952D01*
X146544285Y-40503333D01*
X146496666Y-40408095D01*
X146496666Y-40312857D01*
X146544285Y-40217619D01*
X146591904Y-40170000D01*
X146687142Y-40122380D01*
X146925238Y-40122380D01*
X147068095Y-40170000D01*
X147401428Y-40122380D02*
X147639523Y-41122380D01*
X147830000Y-40408095D01*
X148020476Y-41122380D01*
X148258571Y-40122380D01*
X149163333Y-41122380D02*
X148591904Y-41122380D01*
X148877619Y-41122380D02*
X148877619Y-40122380D01*
X148782380Y-40265238D01*
X148687142Y-40360476D01*
X148591904Y-40408095D01*
%TO.C,D1*%
X185951904Y-80312380D02*
X185951904Y-79312380D01*
X186190000Y-79312380D01*
X186332857Y-79360000D01*
X186428095Y-79455238D01*
X186475714Y-79550476D01*
X186523333Y-79740952D01*
X186523333Y-79883809D01*
X186475714Y-80074285D01*
X186428095Y-80169523D01*
X186332857Y-80264761D01*
X186190000Y-80312380D01*
X185951904Y-80312380D01*
X187475714Y-80312380D02*
X186904285Y-80312380D01*
X187190000Y-80312380D02*
X187190000Y-79312380D01*
X187094761Y-79455238D01*
X186999523Y-79550476D01*
X186904285Y-79598095D01*
%TO.C,R1*%
X103973333Y-40012380D02*
X103640000Y-39536190D01*
X103401904Y-40012380D02*
X103401904Y-39012380D01*
X103782857Y-39012380D01*
X103878095Y-39060000D01*
X103925714Y-39107619D01*
X103973333Y-39202857D01*
X103973333Y-39345714D01*
X103925714Y-39440952D01*
X103878095Y-39488571D01*
X103782857Y-39536190D01*
X103401904Y-39536190D01*
X104925714Y-40012380D02*
X104354285Y-40012380D01*
X104640000Y-40012380D02*
X104640000Y-39012380D01*
X104544761Y-39155238D01*
X104449523Y-39250476D01*
X104354285Y-39298095D01*
%TO.C,V1*%
X92830476Y-85452380D02*
X93163809Y-86452380D01*
X93497142Y-85452380D01*
X94354285Y-86452380D02*
X93782857Y-86452380D01*
X94068571Y-86452380D02*
X94068571Y-85452380D01*
X93973333Y-85595238D01*
X93878095Y-85690476D01*
X93782857Y-85738095D01*
%TO.C,C1*%
X148153333Y-82967142D02*
X148105714Y-83014761D01*
X147962857Y-83062380D01*
X147867619Y-83062380D01*
X147724761Y-83014761D01*
X147629523Y-82919523D01*
X147581904Y-82824285D01*
X147534285Y-82633809D01*
X147534285Y-82490952D01*
X147581904Y-82300476D01*
X147629523Y-82205238D01*
X147724761Y-82110000D01*
X147867619Y-82062380D01*
X147962857Y-82062380D01*
X148105714Y-82110000D01*
X148153333Y-82157619D01*
X149105714Y-83062380D02*
X148534285Y-83062380D01*
X148820000Y-83062380D02*
X148820000Y-82062380D01*
X148724761Y-82205238D01*
X148629523Y-82300476D01*
X148534285Y-82348095D01*
D11*
%TO.C,R2*%
X187960000Y-62060000D02*
X187960000Y-61210000D01*
X185340000Y-61210000D02*
X190580000Y-61210000D01*
X190580000Y-45470000D02*
X185340000Y-45470000D01*
X190580000Y-61210000D02*
X190580000Y-45470000D01*
X187960000Y-44620000D02*
X187960000Y-45470000D01*
X185340000Y-45470000D02*
X185340000Y-61210000D01*
%TO.C,SW1*%
X140530000Y-40570000D02*
X141830000Y-40570000D01*
X142880000Y-41520000D02*
X152780000Y-41520000D01*
X140530000Y-41870000D02*
X140530000Y-40570000D01*
X154830000Y-42270000D02*
X154830000Y-47470000D01*
X140830000Y-47470000D02*
X140830000Y-42270000D01*
X152780000Y-48220000D02*
X142880000Y-48220000D01*
%TO.C,D1*%
X184130000Y-82275000D02*
X184130000Y-85365000D01*
X189680000Y-83820462D02*
G75*
G03*
X184130000Y-82275170I-2990000J462D01*
G01*
X184130000Y-85364830D02*
G75*
G03*
X189680000Y-83819538I2560000J1544830D01*
G01*
X189190000Y-83820000D02*
G75*
G03*
X189190000Y-83820000I-2500000J0D01*
G01*
%TO.C,R1*%
X112860000Y-43180000D02*
X112010000Y-43180000D01*
X95420000Y-43180000D02*
X96270000Y-43180000D01*
X112010000Y-40560000D02*
X96270000Y-40560000D01*
X96270000Y-45800000D02*
X112010000Y-45800000D01*
X96270000Y-40560000D02*
X96270000Y-45800000D01*
X112010000Y-45800000D02*
X112010000Y-40560000D01*
%TO.C,V1*%
X96090000Y-91200000D02*
X96090000Y-87700000D01*
X90580000Y-88400000D02*
X91190000Y-88400000D01*
X90580000Y-91810000D02*
X96700000Y-91810000D01*
X92040000Y-86890000D02*
X92040000Y-87090000D01*
X93140000Y-87700000D02*
X91190000Y-87700000D01*
X96700000Y-89700000D02*
X96090000Y-89700000D01*
X90580000Y-89700000D02*
X91190000Y-89700000D01*
X96700000Y-88400000D02*
X96090000Y-88400000D01*
X93540000Y-91200000D02*
X93540000Y-90700000D01*
X92340000Y-86890000D02*
X92040000Y-86890000D01*
X96090000Y-87700000D02*
X94140000Y-87700000D01*
X90280000Y-86790000D02*
X90280000Y-88040000D01*
X93740000Y-90700000D02*
X93740000Y-91200000D01*
X92340000Y-86990000D02*
X92040000Y-86990000D01*
X93640000Y-91200000D02*
X93640000Y-90700000D01*
X93140000Y-87090000D02*
X93140000Y-87700000D01*
X92340000Y-87090000D02*
X92340000Y-86890000D01*
X93540000Y-90700000D02*
X93740000Y-90700000D01*
X94140000Y-87700000D02*
X94140000Y-87090000D01*
X96700000Y-87090000D02*
X90580000Y-87090000D01*
X90580000Y-87090000D02*
X90580000Y-91810000D01*
X91530000Y-86790000D02*
X90280000Y-86790000D01*
X96700000Y-91810000D02*
X96700000Y-87090000D01*
X91190000Y-87700000D02*
X91190000Y-91200000D01*
X91190000Y-91200000D02*
X96090000Y-91200000D01*
%TO.C,C1*%
X150940000Y-86360000D02*
G75*
G03*
X150940000Y-86360000I-2620000J0D01*
G01*
%TD*%
M02*
