%TF.GenerationSoftware,KiCad,Pcbnew,(6.0.10-0)*%
%TF.CreationDate,2023-02-17T09:12:44-08:00*%
%TF.ProjectId,exercise1_pcb,65786572-6369-4736-9531-5f7063622e6b,rev?*%
%TF.SameCoordinates,Original*%
%TF.FileFunction,Copper,L1,Top*%
%TF.FilePolarity,Positive*%
%FSLAX46Y46*%
G04 Gerber Fmt 4.6, Leading zero omitted, Abs format (unit mm)*
G04 Created by KiCad (PCBNEW (6.0.10-0)) date 2023-02-17 09:12:44*
%MOMM*%
%LPD*%
G01*
G04 APERTURE LIST*
G04 Aperture macros list*
%AMRoundRect*
0 Rectangle with rounded corners*
0 $1 Rounding radius*
0 $2 $3 $4 $5 $6 $7 $8 $9 X,Y pos of 4 corners*
0 Add a 4 corners polygon primitive as box body*
4,1,4,$2,$3,$4,$5,$6,$7,$8,$9,$2,$3,0*
0 Add four circle primitives for the rounded corners*
1,1,$1+$1,$2,$3*
1,1,$1+$1,$4,$5*
1,1,$1+$1,$6,$7*
1,1,$1+$1,$8,$9*
0 Add four rect primitives between the rounded corners*
20,1,$1+$1,$2,$3,$4,$5,0*
20,1,$1+$1,$4,$5,$6,$7,0*
20,1,$1+$1,$6,$7,$8,$9,0*
20,1,$1+$1,$8,$9,$2,$3,0*%
G04 Aperture macros list end*
%TA.AperFunction,ComponentPad*%
%ADD10C,2.400000*%
%TD*%
%TA.AperFunction,ComponentPad*%
%ADD11O,2.400000X2.400000*%
%TD*%
%TA.AperFunction,ComponentPad*%
%ADD12C,2.000000*%
%TD*%
%TA.AperFunction,ComponentPad*%
%ADD13C,1.700000*%
%TD*%
%TA.AperFunction,ComponentPad*%
%ADD14R,1.800000X1.800000*%
%TD*%
%TA.AperFunction,ComponentPad*%
%ADD15C,1.800000*%
%TD*%
%TA.AperFunction,ComponentPad*%
%ADD16RoundRect,0.250000X-0.350000X-0.625000X0.350000X-0.625000X0.350000X0.625000X-0.350000X0.625000X0*%
%TD*%
%TA.AperFunction,ComponentPad*%
%ADD17O,1.200000X1.750000*%
%TD*%
%TA.AperFunction,ComponentPad*%
%ADD18C,1.200000*%
%TD*%
%TA.AperFunction,Conductor*%
%ADD19C,0.250000*%
%TD*%
G04 APERTURE END LIST*
D10*
%TO.P,R2,1*%
%TO.N,Net-(C1-Pad1)*%
X187960000Y-43180000D03*
D11*
%TO.P,R2,2*%
%TO.N,Net-(D1-Pad2)*%
X187960000Y-63500000D03*
%TD*%
D12*
%TO.P,SW1,*%
%TO.N,*%
X153830000Y-47870000D03*
X141830000Y-47870000D03*
X153830000Y-41870000D03*
X141830000Y-41870000D03*
D13*
%TO.P,SW1,1,A*%
%TO.N,unconnected-(SW1-Pad1)*%
X143830000Y-43620000D03*
%TO.P,SW1,2,B*%
%TO.N,Net-(R1-Pad2)*%
X147830000Y-43620000D03*
%TO.P,SW1,3,C*%
%TO.N,Net-(C1-Pad1)*%
X151830000Y-43620000D03*
%TD*%
D14*
%TO.P,D1,1,K*%
%TO.N,Net-(C1-Pad2)*%
X185420000Y-83820000D03*
D15*
%TO.P,D1,2,A*%
%TO.N,Net-(D1-Pad2)*%
X187960000Y-83820000D03*
%TD*%
D10*
%TO.P,R1,1*%
%TO.N,Net-(R1-Pad1)*%
X93980000Y-43180000D03*
D11*
%TO.P,R1,2*%
%TO.N,Net-(R1-Pad2)*%
X114300000Y-43180000D03*
%TD*%
D16*
%TO.P,V1,1,Pin_1*%
%TO.N,Net-(R1-Pad1)*%
X92640000Y-88900000D03*
D17*
%TO.P,V1,2,Pin_2*%
%TO.N,Net-(C1-Pad2)*%
X94640000Y-88900000D03*
%TD*%
D18*
%TO.P,C1,1*%
%TO.N,Net-(C1-Pad1)*%
X147320000Y-86360000D03*
%TO.P,C1,2*%
%TO.N,Net-(C1-Pad2)*%
X149320000Y-86360000D03*
%TD*%
D19*
%TO.N,Net-(C1-Pad1)*%
X151830000Y-43620000D02*
X187520000Y-43620000D01*
X147320000Y-86360000D02*
X147320000Y-48130000D01*
X187520000Y-43620000D02*
X187960000Y-43180000D01*
X147320000Y-48130000D02*
X151830000Y-43620000D01*
%TO.N,Net-(C1-Pad2)*%
X94640000Y-88900000D02*
X147320000Y-88900000D01*
X147320000Y-88900000D02*
X152400000Y-83820000D01*
X152400000Y-83820000D02*
X185420000Y-83820000D01*
%TO.N,Net-(D1-Pad2)*%
X187960000Y-63500000D02*
X187960000Y-83820000D01*
%TO.N,Net-(R1-Pad1)*%
X93980000Y-87560000D02*
X93980000Y-43180000D01*
X92640000Y-88900000D02*
X93980000Y-87560000D01*
%TO.N,Net-(R1-Pad2)*%
X114300000Y-43180000D02*
X116935000Y-40545000D01*
X144755000Y-40545000D02*
X147830000Y-43620000D01*
X116935000Y-40545000D02*
X144755000Y-40545000D01*
%TD*%
M02*
