%TF.GenerationSoftware,KiCad,Pcbnew,(6.0.10-0)*%
%TF.CreationDate,2023-02-17T09:22:20-08:00*%
%TF.ProjectId,exercise2_pcb,65786572-6369-4736-9532-5f7063622e6b,rev?*%
%TF.SameCoordinates,Original*%
%TF.FileFunction,Legend,Top*%
%TF.FilePolarity,Positive*%
%FSLAX46Y46*%
G04 Gerber Fmt 4.6, Leading zero omitted, Abs format (unit mm)*
G04 Created by KiCad (PCBNEW (6.0.10-0)) date 2023-02-17 09:22:20*
%MOMM*%
%LPD*%
G01*
G04 APERTURE LIST*
%ADD10C,0.300000*%
%ADD11C,0.150000*%
%ADD12C,0.120000*%
G04 APERTURE END LIST*
D10*
X139320000Y-126471071D02*
X139320000Y-124971071D01*
X140177142Y-126471071D02*
X139534285Y-125613928D01*
X140177142Y-124971071D02*
X139320000Y-125828214D01*
X141462857Y-126471071D02*
X141462857Y-125685357D01*
X141391428Y-125542500D01*
X141248571Y-125471071D01*
X140962857Y-125471071D01*
X140820000Y-125542500D01*
X141462857Y-126399642D02*
X141320000Y-126471071D01*
X140962857Y-126471071D01*
X140820000Y-126399642D01*
X140748571Y-126256785D01*
X140748571Y-126113928D01*
X140820000Y-125971071D01*
X140962857Y-125899642D01*
X141320000Y-125899642D01*
X141462857Y-125828214D01*
X142034285Y-125471071D02*
X142391428Y-126471071D01*
X142748571Y-125471071D02*
X142391428Y-126471071D01*
X142248571Y-126828214D01*
X142177142Y-126899642D01*
X142034285Y-126971071D01*
X143534285Y-126471071D02*
X143391428Y-126399642D01*
X143320000Y-126256785D01*
X143320000Y-124971071D01*
X144677142Y-126399642D02*
X144534285Y-126471071D01*
X144248571Y-126471071D01*
X144105714Y-126399642D01*
X144034285Y-126256785D01*
X144034285Y-125685357D01*
X144105714Y-125542500D01*
X144248571Y-125471071D01*
X144534285Y-125471071D01*
X144677142Y-125542500D01*
X144748571Y-125685357D01*
X144748571Y-125828214D01*
X144034285Y-125971071D01*
X145962857Y-126399642D02*
X145820000Y-126471071D01*
X145534285Y-126471071D01*
X145391428Y-126399642D01*
X145320000Y-126256785D01*
X145320000Y-125685357D01*
X145391428Y-125542500D01*
X145534285Y-125471071D01*
X145820000Y-125471071D01*
X145962857Y-125542500D01*
X146034285Y-125685357D01*
X146034285Y-125828214D01*
X145320000Y-125971071D01*
X147820000Y-126471071D02*
X147820000Y-124971071D01*
X147820000Y-125685357D02*
X148677142Y-125685357D01*
X148677142Y-126471071D02*
X148677142Y-124971071D01*
X150034285Y-125471071D02*
X150034285Y-126471071D01*
X149391428Y-125471071D02*
X149391428Y-126256785D01*
X149462857Y-126399642D01*
X149605714Y-126471071D01*
X149820000Y-126471071D01*
X149962857Y-126399642D01*
X150034285Y-126328214D01*
X151391428Y-126471071D02*
X151391428Y-124971071D01*
X151391428Y-126399642D02*
X151248571Y-126471071D01*
X150962857Y-126471071D01*
X150820000Y-126399642D01*
X150748571Y-126328214D01*
X150677142Y-126185357D01*
X150677142Y-125756785D01*
X150748571Y-125613928D01*
X150820000Y-125542500D01*
X150962857Y-125471071D01*
X151248571Y-125471071D01*
X151391428Y-125542500D01*
X152034285Y-126399642D02*
X152177142Y-126471071D01*
X152462857Y-126471071D01*
X152605714Y-126399642D01*
X152677142Y-126256785D01*
X152677142Y-126185357D01*
X152605714Y-126042500D01*
X152462857Y-125971071D01*
X152248571Y-125971071D01*
X152105714Y-125899642D01*
X152034285Y-125756785D01*
X152034285Y-125685357D01*
X152105714Y-125542500D01*
X152248571Y-125471071D01*
X152462857Y-125471071D01*
X152605714Y-125542500D01*
X153534285Y-126471071D02*
X153391428Y-126399642D01*
X153320000Y-126328214D01*
X153248571Y-126185357D01*
X153248571Y-125756785D01*
X153320000Y-125613928D01*
X153391428Y-125542500D01*
X153534285Y-125471071D01*
X153748571Y-125471071D01*
X153891428Y-125542500D01*
X153962857Y-125613928D01*
X154034285Y-125756785D01*
X154034285Y-126185357D01*
X153962857Y-126328214D01*
X153891428Y-126399642D01*
X153748571Y-126471071D01*
X153534285Y-126471071D01*
X154677142Y-125471071D02*
X154677142Y-126471071D01*
X154677142Y-125613928D02*
X154748571Y-125542500D01*
X154891428Y-125471071D01*
X155105714Y-125471071D01*
X155248571Y-125542500D01*
X155320000Y-125685357D01*
X155320000Y-126471071D01*
X142784285Y-127386071D02*
X142070000Y-127386071D01*
X141998571Y-128100357D01*
X142070000Y-128028928D01*
X142212857Y-127957500D01*
X142570000Y-127957500D01*
X142712857Y-128028928D01*
X142784285Y-128100357D01*
X142855714Y-128243214D01*
X142855714Y-128600357D01*
X142784285Y-128743214D01*
X142712857Y-128814642D01*
X142570000Y-128886071D01*
X142212857Y-128886071D01*
X142070000Y-128814642D01*
X141998571Y-128743214D01*
X144212857Y-127386071D02*
X143498571Y-127386071D01*
X143427142Y-128100357D01*
X143498571Y-128028928D01*
X143641428Y-127957500D01*
X143998571Y-127957500D01*
X144141428Y-128028928D01*
X144212857Y-128100357D01*
X144284285Y-128243214D01*
X144284285Y-128600357D01*
X144212857Y-128743214D01*
X144141428Y-128814642D01*
X143998571Y-128886071D01*
X143641428Y-128886071D01*
X143498571Y-128814642D01*
X143427142Y-128743214D01*
X145641428Y-127386071D02*
X144927142Y-127386071D01*
X144855714Y-128100357D01*
X144927142Y-128028928D01*
X145070000Y-127957500D01*
X145427142Y-127957500D01*
X145570000Y-128028928D01*
X145641428Y-128100357D01*
X145712857Y-128243214D01*
X145712857Y-128600357D01*
X145641428Y-128743214D01*
X145570000Y-128814642D01*
X145427142Y-128886071D01*
X145070000Y-128886071D01*
X144927142Y-128814642D01*
X144855714Y-128743214D01*
X147284285Y-127886071D02*
X147855714Y-127886071D01*
X147498571Y-127386071D02*
X147498571Y-128671785D01*
X147570000Y-128814642D01*
X147712857Y-128886071D01*
X147855714Y-128886071D01*
X148355714Y-128886071D02*
X148355714Y-127886071D01*
X148355714Y-127386071D02*
X148284285Y-127457500D01*
X148355714Y-127528928D01*
X148427142Y-127457500D01*
X148355714Y-127386071D01*
X148355714Y-127528928D01*
X149070000Y-128886071D02*
X149070000Y-127886071D01*
X149070000Y-128028928D02*
X149141428Y-127957500D01*
X149284285Y-127886071D01*
X149498571Y-127886071D01*
X149641428Y-127957500D01*
X149712857Y-128100357D01*
X149712857Y-128886071D01*
X149712857Y-128100357D02*
X149784285Y-127957500D01*
X149927142Y-127886071D01*
X150141428Y-127886071D01*
X150284285Y-127957500D01*
X150355714Y-128100357D01*
X150355714Y-128886071D01*
X151641428Y-128814642D02*
X151498571Y-128886071D01*
X151212857Y-128886071D01*
X151070000Y-128814642D01*
X150998571Y-128671785D01*
X150998571Y-128100357D01*
X151070000Y-127957500D01*
X151212857Y-127886071D01*
X151498571Y-127886071D01*
X151641428Y-127957500D01*
X151712857Y-128100357D01*
X151712857Y-128243214D01*
X150998571Y-128386071D01*
X152355714Y-128886071D02*
X152355714Y-127886071D01*
X152355714Y-128171785D02*
X152427142Y-128028928D01*
X152498571Y-127957500D01*
X152641428Y-127886071D01*
X152784285Y-127886071D01*
D11*
%TO.C,J1*%
X141906666Y-56662380D02*
X141906666Y-57376666D01*
X141859047Y-57519523D01*
X141763809Y-57614761D01*
X141620952Y-57662380D01*
X141525714Y-57662380D01*
X142906666Y-57662380D02*
X142335238Y-57662380D01*
X142620952Y-57662380D02*
X142620952Y-56662380D01*
X142525714Y-56805238D01*
X142430476Y-56900476D01*
X142335238Y-56948095D01*
%TO.C,C2*%
X119213333Y-102817142D02*
X119165714Y-102864761D01*
X119022857Y-102912380D01*
X118927619Y-102912380D01*
X118784761Y-102864761D01*
X118689523Y-102769523D01*
X118641904Y-102674285D01*
X118594285Y-102483809D01*
X118594285Y-102340952D01*
X118641904Y-102150476D01*
X118689523Y-102055238D01*
X118784761Y-101960000D01*
X118927619Y-101912380D01*
X119022857Y-101912380D01*
X119165714Y-101960000D01*
X119213333Y-102007619D01*
X119594285Y-102007619D02*
X119641904Y-101960000D01*
X119737142Y-101912380D01*
X119975238Y-101912380D01*
X120070476Y-101960000D01*
X120118095Y-102007619D01*
X120165714Y-102102857D01*
X120165714Y-102198095D01*
X120118095Y-102340952D01*
X119546666Y-102912380D01*
X120165714Y-102912380D01*
%TO.C,D1*%
X157681904Y-78832380D02*
X157681904Y-77832380D01*
X157920000Y-77832380D01*
X158062857Y-77880000D01*
X158158095Y-77975238D01*
X158205714Y-78070476D01*
X158253333Y-78260952D01*
X158253333Y-78403809D01*
X158205714Y-78594285D01*
X158158095Y-78689523D01*
X158062857Y-78784761D01*
X157920000Y-78832380D01*
X157681904Y-78832380D01*
X159205714Y-78832380D02*
X158634285Y-78832380D01*
X158920000Y-78832380D02*
X158920000Y-77832380D01*
X158824761Y-77975238D01*
X158729523Y-78070476D01*
X158634285Y-78118095D01*
%TO.C,D2*%
X154714404Y-110392380D02*
X154714404Y-109392380D01*
X154952500Y-109392380D01*
X155095357Y-109440000D01*
X155190595Y-109535238D01*
X155238214Y-109630476D01*
X155285833Y-109820952D01*
X155285833Y-109963809D01*
X155238214Y-110154285D01*
X155190595Y-110249523D01*
X155095357Y-110344761D01*
X154952500Y-110392380D01*
X154714404Y-110392380D01*
X155666785Y-109487619D02*
X155714404Y-109440000D01*
X155809642Y-109392380D01*
X156047738Y-109392380D01*
X156142976Y-109440000D01*
X156190595Y-109487619D01*
X156238214Y-109582857D01*
X156238214Y-109678095D01*
X156190595Y-109820952D01*
X155619166Y-110392380D01*
X156238214Y-110392380D01*
%TO.C,R4*%
X158322141Y-99382380D02*
X157988808Y-98906190D01*
X157750712Y-99382380D02*
X157750712Y-98382380D01*
X158131665Y-98382380D01*
X158226903Y-98430000D01*
X158274522Y-98477619D01*
X158322141Y-98572857D01*
X158322141Y-98715714D01*
X158274522Y-98810952D01*
X158226903Y-98858571D01*
X158131665Y-98906190D01*
X157750712Y-98906190D01*
X159179284Y-98715714D02*
X159179284Y-99382380D01*
X158941188Y-98334761D02*
X158703093Y-99049047D01*
X159322141Y-99049047D01*
%TO.C,R3*%
X161853333Y-87882380D02*
X161520000Y-87406190D01*
X161281904Y-87882380D02*
X161281904Y-86882380D01*
X161662857Y-86882380D01*
X161758095Y-86930000D01*
X161805714Y-86977619D01*
X161853333Y-87072857D01*
X161853333Y-87215714D01*
X161805714Y-87310952D01*
X161758095Y-87358571D01*
X161662857Y-87406190D01*
X161281904Y-87406190D01*
X162186666Y-86882380D02*
X162805714Y-86882380D01*
X162472380Y-87263333D01*
X162615238Y-87263333D01*
X162710476Y-87310952D01*
X162758095Y-87358571D01*
X162805714Y-87453809D01*
X162805714Y-87691904D01*
X162758095Y-87787142D01*
X162710476Y-87834761D01*
X162615238Y-87882380D01*
X162329523Y-87882380D01*
X162234285Y-87834761D01*
X162186666Y-87787142D01*
%TO.C,U1*%
X115758095Y-87029880D02*
X115758095Y-87839404D01*
X115805714Y-87934642D01*
X115853333Y-87982261D01*
X115948571Y-88029880D01*
X116139047Y-88029880D01*
X116234285Y-87982261D01*
X116281904Y-87934642D01*
X116329523Y-87839404D01*
X116329523Y-87029880D01*
X117329523Y-88029880D02*
X116758095Y-88029880D01*
X117043809Y-88029880D02*
X117043809Y-87029880D01*
X116948571Y-87172738D01*
X116853333Y-87267976D01*
X116758095Y-87315595D01*
%TO.C,R1*%
X119213333Y-77542380D02*
X118880000Y-77066190D01*
X118641904Y-77542380D02*
X118641904Y-76542380D01*
X119022857Y-76542380D01*
X119118095Y-76590000D01*
X119165714Y-76637619D01*
X119213333Y-76732857D01*
X119213333Y-76875714D01*
X119165714Y-76970952D01*
X119118095Y-77018571D01*
X119022857Y-77066190D01*
X118641904Y-77066190D01*
X120165714Y-77542380D02*
X119594285Y-77542380D01*
X119880000Y-77542380D02*
X119880000Y-76542380D01*
X119784761Y-76685238D01*
X119689523Y-76780476D01*
X119594285Y-76828095D01*
%TO.C,C1*%
X88733333Y-105287142D02*
X88685714Y-105334761D01*
X88542857Y-105382380D01*
X88447619Y-105382380D01*
X88304761Y-105334761D01*
X88209523Y-105239523D01*
X88161904Y-105144285D01*
X88114285Y-104953809D01*
X88114285Y-104810952D01*
X88161904Y-104620476D01*
X88209523Y-104525238D01*
X88304761Y-104430000D01*
X88447619Y-104382380D01*
X88542857Y-104382380D01*
X88685714Y-104430000D01*
X88733333Y-104477619D01*
X89685714Y-105382380D02*
X89114285Y-105382380D01*
X89400000Y-105382380D02*
X89400000Y-104382380D01*
X89304761Y-104525238D01*
X89209523Y-104620476D01*
X89114285Y-104668095D01*
%TO.C,R2*%
X92899205Y-77542380D02*
X92565872Y-77066190D01*
X92327776Y-77542380D02*
X92327776Y-76542380D01*
X92708729Y-76542380D01*
X92803967Y-76590000D01*
X92851586Y-76637619D01*
X92899205Y-76732857D01*
X92899205Y-76875714D01*
X92851586Y-76970952D01*
X92803967Y-77018571D01*
X92708729Y-77066190D01*
X92327776Y-77066190D01*
X93280157Y-76637619D02*
X93327776Y-76590000D01*
X93423014Y-76542380D01*
X93661110Y-76542380D01*
X93756348Y-76590000D01*
X93803967Y-76637619D01*
X93851586Y-76732857D01*
X93851586Y-76828095D01*
X93803967Y-76970952D01*
X93232538Y-77542380D01*
X93851586Y-77542380D01*
D12*
%TO.C,J1*%
X137160000Y-58480000D02*
X137160000Y-66100000D01*
X147320000Y-64830000D02*
X137160000Y-64830000D01*
X147320000Y-66100000D02*
X147320000Y-58480000D01*
X137160000Y-66100000D02*
X147320000Y-66100000D01*
X147320000Y-58480000D02*
X137160000Y-58480000D01*
%TO.C,C2*%
X119118748Y-103405000D02*
X119641252Y-103405000D01*
X119118748Y-104875000D02*
X119641252Y-104875000D01*
%TO.C,D1*%
X155960000Y-79065000D02*
X155960000Y-81335000D01*
X160020000Y-79065000D02*
X155960000Y-79065000D01*
X155960000Y-81335000D02*
X160020000Y-81335000D01*
%TO.C,D2*%
X152992500Y-112895000D02*
X157052500Y-112895000D01*
X157052500Y-110625000D02*
X152992500Y-110625000D01*
X152992500Y-110625000D02*
X152992500Y-112895000D01*
%TO.C,R4*%
X158261744Y-101315000D02*
X158715872Y-101315000D01*
X158261744Y-99845000D02*
X158715872Y-99845000D01*
%TO.C,R3*%
X161792936Y-88345000D02*
X162247064Y-88345000D01*
X161792936Y-89815000D02*
X162247064Y-89815000D01*
%TO.C,U1*%
X116520000Y-88417500D02*
X113070000Y-88417500D01*
X116520000Y-93537500D02*
X118470000Y-93537500D01*
X116520000Y-93537500D02*
X114570000Y-93537500D01*
X116520000Y-88417500D02*
X118470000Y-88417500D01*
%TO.C,R1*%
X119152936Y-78005000D02*
X119607064Y-78005000D01*
X119152936Y-79475000D02*
X119607064Y-79475000D01*
%TO.C,C1*%
X90500000Y-105745000D02*
X86415000Y-105745000D01*
X86415000Y-105745000D02*
X86415000Y-107615000D01*
X86415000Y-107615000D02*
X90500000Y-107615000D01*
%TO.C,R2*%
X92838808Y-78005000D02*
X93292936Y-78005000D01*
X92838808Y-79475000D02*
X93292936Y-79475000D01*
%TD*%
M02*
